<?xml version="1.0" encoding="utf-8"?>
<!-- Generator: Adobe Illustrator 26.0.1, SVG Export Plug-In . SVG Version: 6.00 Build 0)  -->
<svg version="1.1" id="Layer_1" xmlns="http://www.w3.org/2000/svg" xmlns:xlink="http://www.w3.org/1999/xlink" x="0px" y="0px"
	 viewBox="0 0 1000 1000" style="enable-background:new 0 0 1000 1000;" xml:space="preserve">
<style type="text/css">
	.st0{fill:#FFFFFF;}
	.st1{fill:none;stroke:#FFFFFF;stroke-width:6;stroke-miterlimit:10;}
	.st2{fill:none;stroke:#FFFFFF;stroke-miterlimit:10;}
</style>
<path class="st0" d="M909.6,430.4H740.9c-32.3-124.7-15.5-141-239.5-141c-195.1,0-218.7,0-240.4,141H93.1c0.1-4.6,0.2-9.1,0.4-13.6
	c6.4-147.4,66.9-252.4,407.9-252.4C827,164.4,904.6,272.4,909.6,430.4z"/>
<path class="st0" d="M257.9,451.4v13c0,24.3-19.7,44-44,44h-79c-24.3,0-44-19.7-44-44v-13H257.9z"/>
<path class="st0" d="M905.9,451.4v13c0,24.3-19.7,44-44,44h-79c-24.3,0-44-19.7-44-44v-13H905.9z"/>
<path class="st0" d="M658.4,423.9v-34.8c0-7.3-5.9-13.2-13.2-13.2h-53.4c-6.9,0-12.4,5.6-12.4,12.4v35.6h-176v-35
	c0-7.2-5.8-13-13-13h-52.1c-7.7,0-13.9,6.2-13.9,13.9v34.1l-174,246v143.5c0,12.4,10.1,22.5,22.5,22.5h641.6
	c10.4,0,18.9-8.4,18.9-18.9V669.9L658.4,423.9z M395.9,689.4c-12.7,0-23-10.3-23-23s10.3-23,23-23s23,10.3,23,23
	S408.6,689.4,395.9,689.4z M371.9,587.4c0-12.7,10.3-23,23-23s23,10.3,23,23s-10.3,23-23,23S371.9,600.1,371.9,587.4z M395.9,531.4
	c-12.7,0-23-10.3-23-23s10.3-23,23-23s23,10.3,23,23S408.6,531.4,395.9,531.4z M491.9,689.4c-12.7,0-23-10.3-23-23s10.3-23,23-23
	s23,10.3,23,23S504.6,689.4,491.9,689.4z M491.9,610.4c-12.7,0-23-10.3-23-23s10.3-23,23-23s23,10.3,23,23S504.6,610.4,491.9,610.4z
	 M491.9,531.4c-12.7,0-23-10.3-23-23s10.3-23,23-23s23,10.3,23,23S504.6,531.4,491.9,531.4z M586.9,689.4c-12.7,0-23-10.3-23-23
	s10.3-23,23-23s23,10.3,23,23S599.6,689.4,586.9,689.4z M586.9,610.4c-12.7,0-23-10.3-23-23s10.3-23,23-23s23,10.3,23,23
	S599.6,610.4,586.9,610.4z M586.9,531.4c-12.7,0-23-10.3-23-23s10.3-23,23-23s23,10.3,23,23S599.6,531.4,586.9,531.4z"/>
<circle class="st1" cx="394.9" cy="587.4" r="23"/>
<circle class="st1" cx="395.9" cy="666.4" r="23"/>
<circle class="st1" cx="395.9" cy="508.4" r="23"/>
<circle class="st1" cx="491.9" cy="666.4" r="23"/>
<circle class="st1" cx="491.9" cy="587.4" r="23"/>
<circle class="st1" cx="491.9" cy="508.4" r="23"/>
<circle class="st1" cx="586.9" cy="666.4" r="23"/>
<circle class="st1" cx="586.9" cy="587.4" r="23"/>
<circle class="st1" cx="586.9" cy="508.4" r="23"/>
<circle class="st2" cx="491.9" cy="587.4" r="23"/>
<circle class="st2" cx="586.9" cy="587.4" r="23"/>
<circle class="st2" cx="395.9" cy="508.4" r="23"/>
<circle class="st2" cx="394.9" cy="587.4" r="23"/>
<circle class="st2" cx="491.9" cy="666.4" r="23"/>
<circle class="st2" cx="395.9" cy="666.4" r="23"/>
<circle class="st2" cx="586.9" cy="666.4" r="23"/>
<circle class="st2" cx="586.9" cy="508.4" r="23"/>
<circle class="st2" cx="491.9" cy="508.4" r="23"/>
</svg>
