<?xml version="1.0" encoding="utf-8"?>
<!-- Generator: Adobe Illustrator 26.0.1, SVG Export Plug-In . SVG Version: 6.00 Build 0)  -->
<!DOCTYPE svg PUBLIC "-//W3C//DTD SVG 1.1//EN" "http://www.w3.org/Graphics/SVG/1.1/DTD/svg11.dtd" [
	<!ENTITY ns_extend "http://ns.adobe.com/Extensibility/1.0/">
	<!ENTITY ns_ai "http://ns.adobe.com/AdobeIllustrator/10.0/">
	<!ENTITY ns_graphs "http://ns.adobe.com/Graphs/1.0/">
	<!ENTITY ns_vars "http://ns.adobe.com/Variables/1.0/">
	<!ENTITY ns_imrep "http://ns.adobe.com/ImageReplacement/1.0/">
	<!ENTITY ns_sfw "http://ns.adobe.com/SaveForWeb/1.0/">
	<!ENTITY ns_custom "http://ns.adobe.com/GenericCustomNamespace/1.0/">
	<!ENTITY ns_adobe_xpath "http://ns.adobe.com/XPath/1.0/">
]>
<svg version="1.1" id="Layer_3" xmlns:x="&ns_extend;" xmlns:i="&ns_ai;" xmlns:graph="&ns_graphs;"
	 xmlns="http://www.w3.org/2000/svg" xmlns:xlink="http://www.w3.org/1999/xlink" x="0px" y="0px" viewBox="0 0 742 742"
	 style="enable-background:new 0 0 742 742;" xml:space="preserve">
<style type="text/css">
	.Drop_x0020_Shadow{fill:none;}
	.Outer_x0020_Glow_x0020_5_x0020_pt{fill:none;}
	.Blue_x0020_Neon{fill:none;stroke:#8AACDA;stroke-width:7;stroke-linecap:round;stroke-linejoin:round;}
	.Chrome_x0020_Highlight{fill:url(#SVGID_1_);stroke:#FFFFFF;stroke-width:0.3629;stroke-miterlimit:1;}
	.Jive_GS{fill:#FFDD00;}
	.Alyssa_GS{fill:#A6D0E4;}
	.st0{fill:#FFE078;}
	.st1{fill:#065823;}
	.st2{fill:#3E8C4B;}
	.st3{fill:#74AE56;}
	.st4{fill:#F4AC22;}
	.st5{fill:#DA1D00;}
	.st6{fill:#FC8EAD;}
	.st7{fill:url(#SVGID_00000000211040988441269420000008781528311116359842_);}
	.st8{fill:url(#SVGID_00000125594774180690189960000008961796028925733819_);}
</style>
<metadata>
	<sfw  xmlns="&ns_sfw;">
		<slices></slices>
		<sliceSourceBounds  bottomLeftOrigin="true" height="672" width="581.7" x="167.2" y="-830.7"></sliceSourceBounds>
		<optimizationSettings>
			<targetSettings  fileFormat="PNG8Format" targetSettingsID="0">
				
					<PNG8Format  autoReduce="false" ditherAlgorithm="diffusion" ditherPercent="100" interlaced="false" matteColor="#FFFFFF" noMatteColor="false" numColors="256" reductionAlgorithm="perceptual" rolloverMasterPalette="false" transparency="true" webShiftPercent="0">
					<colorTable  isExact="false"></colorTable>
					<lockedColors></lockedColors>
					<colorShiftEntries></colorShiftEntries>
				</PNG8Format>
			</targetSettings>
		</optimizationSettings>
	</sfw>
</metadata>
<linearGradient id="SVGID_1_" gradientUnits="userSpaceOnUse" x1="-78.5" y1="-124" x2="-78.5" y2="-125">
	<stop  offset="0" style="stop-color:#656565"/>
	<stop  offset="0.618" style="stop-color:#1B1B1B"/>
	<stop  offset="0.6292" style="stop-color:#545454"/>
	<stop  offset="0.9831" style="stop-color:#3E3E3E"/>
</linearGradient>
<g>
	<path class="st0" d="M289,369.5c2.8-1.4,5.6-2.8,8.3-4.2c2.8-1.4,10.5-8.5,12.7-3.8c0,0,13.9,29,13.9,29c0.8,0.5,1.7,0.5,2.6,0
		l2.4-36l20-9c0.8-0.3,3.5-2.1,2-4c-0.4-1.4-2-2.1-3.3-2.1c-0.9,0-1.7,0.1-2.6,0.2c-3.3,0.2-6.7-0.8-9.9-1c-4-0.3-8-0.7-12-1
		c-0.4,0-0.8-0.1-1.2-0.2c-0.5-0.2-0.9-0.6-1.3-1c-7.7-7.8-14.8-16.1-22.5-23.8c-3-1.9-3.9-0.2-4,2l8,22l1,5l-18,24
		C283.8,369.3,285.3,370.5,289,369.5z"/>
	<ellipse class="st0" cx="327" cy="323.5" rx="9" ry="11"/>
</g>
<g>
	<path class="st1" d="M211.3,153.8c2.2-2.2,4.4-4.4,6.6-6.6c2.2-2.2,7.3-11.4,10.9-7.7c0,0,22.4,23.1,22.4,23.1
		c0.9,0.2,1.8-0.1,2.5-0.8l-9.2-34.9l16.1-14.9c0.7-0.5,2.6-3.1,0.6-4.4c-0.8-1.2-2.5-1.3-3.8-0.9c-0.8,0.3-1.6,0.7-2.4,1
		c-3.1,1.2-6.6,1.4-9.8,2.2c-3.9,1-7.8,1.9-11.7,2.9c-0.4,0.1-0.8,0.2-1.2,0.2c-0.6,0-1.1-0.3-1.6-0.6c-9.7-4.9-19.1-10.6-28.9-15.4
		c-3.5-0.8-3.8,1-3.2,3.2l14.6,18.3l2.5,4.4l-9.5,28.5C206.3,155.2,208.1,155.9,211.3,153.8z"/>
	<ellipse transform="matrix(0.9484 -0.3172 0.3172 0.9484 -19.0953 78.8892)" class="st1" cx="232.7" cy="98.1" rx="9" ry="11"/>
</g>
<g>
	<path class="st2" d="M310.7,115.5c0.2-3.1,0.5-6.2,0.7-9.3c0.2-3.1-1.9-13.4,3.3-12.9c0,0,32,3,32,3c0.9-0.5,1.3-1.2,1.4-2.3
		l-29.6-20.6l2.6-21.8c0.2-0.9,0-4.1-2.4-3.8c-1.4-0.4-2.8,0.6-3.5,1.8c-0.5,0.7-0.8,1.6-1.2,2.3c-1.5,2.9-4.1,5.3-6,8
		c-2.3,3.3-4.7,6.5-7.1,9.8c-0.2,0.3-0.5,0.7-0.8,0.9c-0.5,0.3-1,0.5-1.6,0.6c-10.6,2.6-21.4,4.4-32,7c-3.2,1.6-2.2,3.2-0.3,4.5
		l23,4.5l4.8,1.7l11.3,27.8C307.9,119.9,309.7,119.2,310.7,115.5z"/>
	<ellipse transform="matrix(0.5149 -0.8573 0.8573 0.5149 90.2714 278.081)" class="st2" cx="290.8" cy="59.3" rx="9" ry="11"/>
</g>
<g>
	<path class="st3" d="M464,187.5c2.8-1.4,5.6-2.8,8.3-4.2c2.8-1.4,10.5-8.5,12.7-3.8c0,0,13.9,29,13.9,29c0.8,0.5,1.7,0.5,2.6,0
		l2.4-36l20-9c0.8-0.3,3.5-2.1,2-4c-0.4-1.4-2-2.1-3.3-2.1c-0.9,0-1.7,0.1-2.6,0.2c-3.3,0.2-6.7-0.8-9.9-1c-4-0.3-8-0.7-12-1
		c-0.4,0-0.8-0.1-1.2-0.2c-0.5-0.2-0.9-0.6-1.3-1c-7.7-7.8-14.8-16.1-22.5-23.8c-3-1.9-3.9-0.2-4,2l8,22l1,5l-18,24
		C458.8,187.3,460.3,188.5,464,187.5z"/>
	<ellipse class="st3" cx="502" cy="141.5" rx="9" ry="11"/>
</g>
<g>
	<path class="st4" d="M533,265.7c0.2-1.9,0.5-3.8,0.7-5.7c0.2-1.9-0.8-8.3,2.4-7.9c0,0,19.8,2.8,19.8,2.8c0.5-0.3,0.8-0.7,0.9-1.4
		L539,239.8l2.3-13.4c0.2-0.5,0.1-2.5-1.4-2.4c-0.9-0.3-1.7,0.3-2.2,1c-0.3,0.4-0.5,0.9-0.8,1.4c-1,1.8-2.7,3.2-4,4.8
		c-1.5,2-3.1,3.9-4.7,5.9c-0.2,0.2-0.3,0.4-0.5,0.6c-0.3,0.2-0.6,0.3-1,0.3c-6.7,1.3-13.4,2.1-20.1,3.4c-2,0.9-1.5,1.9-0.3,2.8
		l14.1,3.5l2.9,1.2l6.2,17.6C531.1,268.3,532.2,267.9,533,265.7z"/>
	
		<ellipse transform="matrix(0.5558 -0.8313 0.8313 0.5558 40.6741 536.4864)" class="st4" cx="522.4" cy="230.2" rx="5.6" ry="6.8"/>
</g>
<g>
	<path class="st3" d="M336.8,138.1c1.4-0.7,2.7-1.4,4.1-2.1c1.4-0.7,5.2-4.2,6.3-1.9c0,0,6.9,14.3,6.9,14.3c0.4,0.2,0.8,0.2,1.3,0
		l1.2-17.7l9.8-4.4c0.4-0.1,1.7-1,1-2c-0.2-0.7-1-1-1.6-1c-0.4,0-0.9,0.1-1.3,0.1c-1.6,0.1-3.3-0.4-4.9-0.5c-2-0.1-3.9-0.3-5.9-0.5
		c-0.2,0-0.4,0-0.6-0.1c-0.3-0.1-0.5-0.3-0.7-0.5c-3.8-3.8-7.3-7.9-11.1-11.7c-1.5-0.9-1.9-0.1-2,1l3.9,10.8l0.5,2.5l-8.9,11.8
		C334.2,138,334.9,138.6,336.8,138.1z"/>
	<ellipse class="st3" cx="355.5" cy="115.5" rx="4.4" ry="5.4"/>
</g>
<g>
	<path class="st0" d="M630,263.2c0.8-3,1.5-6,2.3-9c0.8-3,0.4-13.5,5.4-12.2c0,0,31.1,8.3,31.1,8.3c0.9-0.3,1.5-1,1.7-2L644.6,223
		l6.2-21c0.4-0.8,0.6-4-1.7-4.1c-1.3-0.6-2.8,0.2-3.8,1.2c-0.6,0.6-1,1.4-1.6,2.1c-2,2.6-4.9,4.5-7.3,6.9c-2.8,2.9-5.7,5.7-8.6,8.5
		c-0.3,0.3-0.6,0.6-1,0.8c-0.5,0.3-1.1,0.3-1.7,0.3c-10.9,0.8-21.8,0.8-32.7,1.6c-3.4,1.1-2.7,2.8-1.1,4.3l21.9,8.2l4.4,2.5
		l6.5,29.3C626.5,267,628.3,266.6,630,263.2z"/>
	<ellipse transform="matrix(0.6504 -0.7596 0.7596 0.6504 61.3956 542.1918)" class="st0" cx="619.8" cy="204.4" rx="9" ry="11"/>
</g>
<g>
	<path class="st1" d="M510.6,219.3c5.2-2.6,10.3-5.2,15.5-7.7c5.2-2.6,19.5-15.7,23.6-7.1c0,0,25.8,53.8,25.8,53.8
		c1.5,0.9,3.2,0.8,4.9,0l4.4-66.8l37.1-16.7c1.6-0.5,6.5-4,3.7-7.4c-0.8-2.6-3.7-3.8-6.2-3.9c-1.6,0-3.2,0.2-4.8,0.4
		c-6.1,0.4-12.3-1.5-18.4-1.9c-7.4-0.5-14.9-1.2-22.3-1.8c-0.8-0.1-1.6-0.1-2.3-0.4c-1-0.4-1.7-1.2-2.5-1.9
		c-14.2-14.4-27.4-29.8-41.8-44.1c-5.6-3.5-7.2-0.4-7.4,3.7l14.8,40.8l1.9,9.3l-33.4,44.5C501.1,218.9,503.8,221.1,510.6,219.3z"/>
	<ellipse class="st1" cx="581.1" cy="133.9" rx="16.7" ry="20.4"/>
</g>
<g>
	<path class="st3" d="M514.2,356.4c-1.8-2.6-3.5-5.1-5.3-7.7c-1.8-2.6-9.9-9.2-5.6-12.1c0,0,26.7-17.9,26.7-17.9
		c0.4-0.9,0.2-1.8-0.4-2.6l-36,2.8l-11.8-18.5c-0.4-0.8-2.6-3.1-4.2-1.4c-1.3,0.6-1.8,2.2-1.6,3.6c0.1,0.9,0.4,1.7,0.6,2.6
		c0.7,3.2,0.2,6.7,0.4,10c0.3,4,0.5,8,0.7,12.1c0,0.4,0.1,0.8,0,1.3c-0.1,0.6-0.5,1-0.8,1.5c-6.6,8.7-13.8,16.9-20.4,25.7
		c-1.4,3.3,0.3,3.9,2.5,3.7l20.6-11l4.8-1.7l26.3,14.4C514.7,361.6,515.7,359.9,514.2,356.4z"/>
	<ellipse transform="matrix(0.9898 -0.1422 0.1422 0.9898 -41.5552 69.1805)" class="st3" cx="463.3" cy="325.3" rx="11" ry="9"/>
</g>
<g>
	<path class="st5" d="M535,352.5c2.8-1.4,5.6-2.8,8.3-4.2c2.8-1.4,10.5-8.5,12.7-3.8c0,0,13.9,29,13.9,29c0.8,0.5,1.7,0.5,2.6,0
		l2.4-36l20-9c0.8-0.3,3.5-2.1,2-4c-0.4-1.4-2-2.1-3.3-2.1c-0.9,0-1.7,0.1-2.6,0.2c-3.3,0.2-6.7-0.8-9.9-1c-4-0.3-8-0.7-12-1
		c-0.4,0-0.8-0.1-1.2-0.2c-0.5-0.2-0.9-0.6-1.3-1c-7.7-7.8-14.8-16.1-22.5-23.8c-3-1.9-3.9-0.2-4,2l8,22l1,5l-18,24
		C529.8,352.3,531.3,353.5,535,352.5z"/>
	<ellipse class="st5" cx="573" cy="306.5" rx="9" ry="11"/>
</g>
<g>
	<path class="st1" d="M590,311.6c1.7-1.2,3.5-2.4,5.2-3.6c1.8-1.2,6.3-6.8,8.2-3.8c0,0,12.2,18.3,12.2,18.3c0.6,0.3,1.2,0.1,1.8-0.3
		l-1.9-24.6l12.7-8c0.5-0.3,2.1-1.8,1-2.9c-0.4-0.9-1.5-1.2-2.5-1.1c-0.6,0.1-1.2,0.3-1.7,0.4c-2.2,0.5-4.6,0.1-6.8,0.3
		c-2.7,0.2-5.5,0.3-8.2,0.5c-0.3,0-0.6,0-0.9,0c-0.4-0.1-0.7-0.3-1-0.6c-5.9-4.5-11.6-9.5-17.6-13.9c-2.2-1-2.7,0.2-2.5,1.7
		l7.6,14.1l1.2,3.3l-9.8,18C586.5,312,587.6,312.7,590,311.6z"/>
	
		<ellipse transform="matrix(0.9898 -0.1422 0.1422 0.9898 -33.1496 89.7338)" class="st1" cx="611.3" cy="276.8" rx="6.2" ry="7.5"/>
</g>
<g>
	<path class="st4" d="M221.2,320.8c0.8-1.2,1.7-2.4,2.5-3.7c0.8-1.2,2.4-6,4.4-4.5c0,0,12.5,10,12.5,10c0.5,0,0.8-0.2,1.1-0.6
		l-7.3-16.6l6.2-8.3c0.3-0.3,1-1.7-0.1-2.2c-0.5-0.5-1.3-0.5-1.9-0.2c-0.4,0.2-0.7,0.4-1,0.6c-1.3,0.8-2.9,1.1-4.4,1.7
		c-1.7,0.7-3.5,1.4-5.2,2.1c-0.2,0.1-0.4,0.2-0.6,0.2c-0.3,0-0.5-0.1-0.8-0.2c-5-1.8-9.9-4-14.9-5.8c-1.7-0.2-1.7,0.7-1.2,1.8
		l8.4,8.1l1.6,2l-1.9,14.6C219,321.8,219.9,322,221.2,320.8z"/>
	
		<ellipse transform="matrix(0.8881 -0.4597 0.4597 0.8881 -108.915 136.7423)" class="st4" cx="226.4" cy="292.1" rx="4.2" ry="5.5"/>
</g>
<g>
	<path class="st6" d="M599.8,335.4c0.6,0.9,1.1,1.8,1.7,2.8c0.6,0.9,3.7,3.7,1.3,4.1c0,0-14.8,2.1-14.8,2.1
		c-0.3,0.2-0.3,0.5-0.1,0.8l17.5,3.2l3.6,6.6c0.1,0.3,0.9,1.2,1.9,0.9c0.7,0,1.1-0.4,1.2-0.8c0-0.3,0-0.5,0-0.8c0-1,0.7-1.9,0.9-2.9
		c0.3-1.2,0.7-2.3,1-3.5c0-0.1,0.1-0.2,0.2-0.4c0.1-0.1,0.3-0.2,0.6-0.3c4.1-1.7,8.5-3.3,12.6-5c1-0.8,0.3-1.1-0.8-1.3l-11.1,0.9
		l-2.5,0l-11-7C600.1,333.9,599.5,334.3,599.8,335.4z"/>
	
		<ellipse transform="matrix(0.1399 -0.9902 0.9902 0.1399 187.4167 915.5909)" class="st6" cx="620.7" cy="349.9" rx="2.7" ry="5.4"/>
</g>
<g>
	<path class="st1" d="M528,365.8c1.4,1,2.7,2,4.1,3c1.4,1,6.8,3,5.1,5.2c0,0-10.6,14.1-10.6,14.1c0,0.5,0.2,0.9,0.7,1.3l18.1-7.9
		l9.4,7.4c0.3,0.3,1.9,1.2,2.4,0c0.6-0.6,0.5-1.5,0.2-2.1c-0.2-0.4-0.5-0.8-0.7-1.2c-0.9-1.5-1.3-3.4-2-5.1c-0.9-2-1.7-4.1-2.5-6.1
		c-0.1-0.2-0.2-0.4-0.2-0.7c0-0.3,0.1-0.6,0.2-0.9c1.9-5.7,4.1-11.2,5.9-16.9c0.1-1.9-0.9-2-2-1.4l-8.7,9.4l-2.2,1.7l-16.2-2.7
		C526.8,363.3,526.5,364.3,528,365.8z"/>
	
		<ellipse transform="matrix(0.8881 -0.4597 0.4597 0.8881 -108.6679 299.0516)" class="st1" cx="559.8" cy="372.7" rx="6" ry="4.9"/>
</g>
<g>
	<path class="st2" d="M476.3,298c-0.3-3.1-0.5-6.2-0.8-9.3c-0.3-3.1-4-12.9,1.1-13.3c0,0,32.1-2.3,32.1-2.3c0.8-0.6,1.1-1.4,1-2.5
		l-32.6-15.5l-1-21.9c0.1-0.9-0.7-4-3-3.3c-1.5-0.1-2.6,1.1-3.2,2.3c-0.3,0.8-0.5,1.7-0.8,2.5c-1,3.1-3.2,5.9-4.6,8.9
		c-1.7,3.6-3.6,7.2-5.4,10.8c-0.2,0.4-0.4,0.8-0.7,1.1c-0.4,0.4-0.9,0.6-1.5,0.9c-10.1,4.3-20.4,7.8-30.4,12.2
		c-2.8,2.1-1.6,3.5,0.4,4.5l23.4,0.7l5,0.9l15.7,25.6C474.2,302.7,475.8,301.8,476.3,298z"/>
	<ellipse transform="matrix(0.3684 -0.9297 0.9297 0.3684 54.2363 571.2284)" class="st2" cx="447.5" cy="245.7" rx="9" ry="11"/>
</g>
<g>
	<path class="st5" d="M358,335.1c3-5.1,5.9-10.2,8.9-15.3c3-5.1,7.8-24.4,16.2-19.4c0,0,52.4,31.5,52.4,31.5
		c1.8-0.1,3.2-1.1,4.2-2.8l-33.8-59.6l22.3-35.2c1.1-1.3,3.3-7-1-8.4c-2.1-1.8-5.3-1.2-7.5,0.2c-1.4,0.9-2.6,2-3.9,3
		c-5,3.8-11.4,5.7-16.8,8.7c-6.7,3.7-13.4,7.3-20.1,11c-0.7,0.4-1.4,0.8-2.2,0.9c-1.1,0.2-2.2,0-3.2-0.2
		c-20.3-4.3-40.3-10.1-60.6-14.3c-6.7,0.2-6.4,3.7-4.3,7.3l35.7,26.5l6.8,6.9l-3.5,56.9C349.6,340.1,353.2,340.5,358,335.1z"/>
	
		<ellipse transform="matrix(0.8353 -0.5498 0.5498 0.8353 -61.3032 240.2337)" class="st5" cx="370.3" cy="222.4" rx="17.1" ry="20.9"/>
</g>
<g>
	<path class="st0" d="M127.3,218.3c2.4-1.2,4.8-2.4,7.2-3.6c2.4-1.2,9.1-7.4,11-3.3c0,0,12.1,25.1,12.1,25.1c0.7,0.4,1.5,0.4,2.3,0
		l2-31.2l17.3-7.8c0.7-0.2,3-1.8,1.7-3.5c-0.4-1.2-1.7-1.8-2.9-1.8c-0.8,0-1.5,0.1-2.3,0.2c-2.9,0.2-5.8-0.7-8.6-0.9
		c-3.5-0.3-7-0.6-10.4-0.9c-0.4,0-0.7-0.1-1.1-0.2c-0.5-0.2-0.8-0.5-1.2-0.9c-6.6-6.7-12.8-14-19.5-20.6c-2.6-1.6-3.4-0.2-3.5,1.7
		l6.9,19.1l0.9,4.3l-15.6,20.8C122.8,218.2,124.1,219.2,127.3,218.3z"/>
	<ellipse class="st0" cx="160.3" cy="178.5" rx="7.8" ry="9.5"/>
</g>
<g>
	<path class="st5" d="M252.8,402.5c1.6-2.7,3.1-5.4,4.7-8.1c1.6-2.7,4.1-12.9,8.5-10.2c0,0,27.6,16.6,27.6,16.6c1,0,1.7-0.6,2.2-1.5
		L278,367.9l11.8-18.5c0.6-0.7,1.7-3.7-0.5-4.4c-1.1-0.9-2.8-0.6-3.9,0.1c-0.7,0.5-1.4,1.1-2.1,1.6c-2.6,2-6,3-8.9,4.6
		c-3.5,2-7.1,3.9-10.6,5.8c-0.4,0.2-0.7,0.4-1.2,0.5c-0.6,0.1-1.1,0-1.7-0.1c-10.7-2.3-21.2-5.3-31.9-7.5c-3.5,0.1-3.4,2-2.2,3.9
		l18.8,14l3.6,3.6l-1.8,29.9C248.4,405.1,250.3,405.3,252.8,402.5z"/>
	<ellipse transform="matrix(0.8353 -0.5498 0.5498 0.8353 -145.9627 199.063)" class="st5" cx="259.3" cy="343.1" rx="9" ry="11"/>
</g>
<g>
	<path class="st4" d="M135,365.9c4-2,8.1-4,12.1-6c4.1-2,15.2-12.3,18.5-5.6c0,0,20.2,42.1,20.2,42.1c1.2,0.7,2.5,0.7,3.8,0
		l3.4-52.2l29-13.1c1.2-0.4,5-3.1,2.9-5.8c-0.6-2-2.9-3-4.8-3c-1.3,0-2.5,0.2-3.8,0.3c-4.8,0.3-9.7-1.2-14.4-1.5
		c-5.8-0.4-11.6-1-17.5-1.4c-0.6,0-1.2-0.1-1.8-0.3c-0.8-0.3-1.4-0.9-1.9-1.5c-11.1-11.3-21.5-23.3-32.7-34.5
		c-4.4-2.7-5.7-0.3-5.8,2.9l11.6,31.9l1.5,7.3l-26.1,34.8C127.5,365.6,129.6,367.3,135,365.9z"/>
	<ellipse class="st4" cx="190.1" cy="299.1" rx="13.1" ry="16"/>
</g>
<g>
	<path class="st1" d="M127.1,291.1c0.2-2.4,0.4-4.8,0.6-7.3c0.2-2.4-1.6-10.7,2.7-9.9c0,0,26.5,4.9,26.5,4.9c0.7-0.3,1-0.9,1.1-1.7
		l-24.6-18.6l2.1-17c0.2-0.7,0-3.2-2-3.2c-1.2-0.4-2.3,0.3-2.9,1.1c-0.4,0.5-0.6,1.2-1,1.7c-1.3,2.2-3.4,3.8-5,5.8
		c-1.9,2.4-3.9,4.8-5.8,7.2c-0.2,0.2-0.4,0.5-0.7,0.7c-0.4,0.2-0.8,0.3-1.3,0.4c-8.8,1.2-17.7,1.8-26.5,3c-2.6,1-1.8,2.4-0.3,3.5
		l19,5.4l4,1.7l9.4,22.8C124.7,294.3,126.2,294,127.1,291.1z"/>
	
		<ellipse transform="matrix(0.5558 -0.8313 0.8313 0.5558 -154.6961 200.757)" class="st1" cx="110.5" cy="245.1" rx="6.9" ry="9.4"/>
</g>
<g>
	<path class="st4" d="M367.5,380c2.8-1.4,5.6-2.8,8.3-4.2c2.8-1.4,10.5-8.5,12.7-3.8c0,0,13.9,29,13.9,29c0.8,0.5,1.7,0.5,2.6,0
		l2.4-36l20-9c0.8-0.3,3.5-2.1,2-4c-0.4-1.4-2-2.1-3.3-2.1c-0.9,0-1.7,0.1-2.6,0.2c-3.3,0.2-6.7-0.8-9.9-1c-4-0.3-8-0.7-12-1
		c-0.4,0-0.8-0.1-1.2-0.2c-0.5-0.2-0.9-0.6-1.3-1c-7.7-7.8-14.8-16.1-22.5-23.8c-3-1.9-3.9-0.2-4,2l8,22l1,5l-18,24
		C362.3,379.8,363.8,381,367.5,380z"/>
	<ellipse class="st4" cx="405.5" cy="334" rx="9" ry="11"/>
</g>
<g>
	<path class="st2" d="M178.7,189.5c1-0.9,1.9-1.7,2.9-2.6c1-0.9,3.3-4.6,4.6-2.8c0,0,8.4,11.2,8.4,11.2c0.4,0.1,0.7,0,1-0.2
		l-2.7-15.8l6.9-5.7c0.3-0.2,1.2-1.2,0.4-1.9c-0.3-0.6-1-0.7-1.5-0.6c-0.3,0.1-0.7,0.2-1,0.3c-1.3,0.4-2.7,0.3-4,0.5
		c-1.6,0.2-3.2,0.5-4.8,0.7c-0.2,0-0.3,0-0.5,0c-0.2,0-0.4-0.2-0.6-0.3c-3.8-2.7-7.5-5.6-11.3-8.2c-1.4-0.5-1.6,0.3-1.4,1.2l5.4,8.8
		l0.9,2.1l-4.6,12C176.7,189.9,177.4,190.2,178.7,189.5z"/>
	<ellipse transform="matrix(0.9733 -0.2297 0.2297 0.9733 -33.0874 47.8463)" class="st2" cx="189" cy="166.1" rx="3.6" ry="4.9"/>
</g>
<g>
	<path class="st6" d="M412.6,383.4c2.4,0.7,4.7,1.3,7.1,2c2.4,0.7,10.8,0.5,9.3,4.6c0,0-9.7,25.1-9.7,25.1c0.2,0.8,0.7,1.2,1.4,1.4
		l22.9-20.6l16.4,5.3c0.6,0.3,3.2,0.6,3.5-1.4c0.6-1.1,0.1-2.3-0.6-3.1c-0.5-0.5-1-0.9-1.5-1.3c-1.9-1.7-3.2-4.1-4.8-6
		c-2-2.3-4-4.7-6-7.1c-0.2-0.2-0.4-0.5-0.5-0.8c-0.2-0.4-0.1-0.9-0.1-1.4c0.5-8.9,1.5-17.8,1.9-26.6c-0.5-2.8-2-2.2-3.4-0.9
		l-8.8,17.7l-2.4,3.6l-24.2,4.9C409.9,380.5,410,382,412.6,383.4z"/>
	<ellipse transform="matrix(0.7022 -0.712 0.712 0.7022 -130.3838 440.2458)" class="st6" cx="461" cy="376" rx="9.4" ry="6.9"/>
</g>
<g>
	<path class="st4" d="M499.9,312.8c1.8-0.9,3.5-1.8,5.3-2.6c1.8-0.9,6.7-5.4,8.1-2.4c0,0,8.8,18.4,8.8,18.4c0.5,0.3,1.1,0.3,1.7,0
		l1.5-22.8l12.7-5.7c0.5-0.2,2.2-1.4,1.3-2.5c-0.3-0.9-1.3-1.3-2.1-1.3c-0.6,0-1.1,0.1-1.7,0.1c-2.1,0.1-4.2-0.5-6.3-0.7
		c-2.5-0.2-5.1-0.4-7.6-0.6c-0.3,0-0.5,0-0.8-0.1c-0.3-0.1-0.6-0.4-0.9-0.7c-4.9-4.9-9.4-10.2-14.3-15.1c-1.9-1.2-2.5-0.1-2.5,1.3
		l5.1,14l0.6,3.2l-11.4,15.2C496.6,312.7,497.5,313.5,499.9,312.8z"/>
	<ellipse class="st4" cx="524" cy="283.6" rx="5.7" ry="7"/>
</g>
<g>
	<path class="st1" d="M389.9,461.6c-1.1-3.1-2.3-6.2-3.4-9.2c-1.1-3.1-7.4-11.9-2.7-14c0,0,29.3-12.9,29.3-12.9
		c0.6-0.9,0.6-1.8,0.2-2.8l-34.8-5.1l-7.2-22.1c-0.2-0.9-1.8-3.9-3.7-2.4c-1.4,0.4-2.2,2-2.3,3.4c-0.1,0.9,0,1.9,0,2.8
		c-0.1,3.6-1.3,7.1-1.8,10.6c-0.6,4.3-1.3,8.6-1.9,12.9c-0.1,0.4-0.1,0.9-0.3,1.3c-0.2,0.6-0.7,1-1.1,1.4
		c-8.2,7.7-16.8,14.8-24.9,22.5c-2,3.1-0.5,4.2,1.6,4.4l22-7l4.9-0.7l21.9,21C389.2,467.1,390.5,465.6,389.9,461.6z"/>
	
		<ellipse transform="matrix(7.281432e-02 -0.9973 0.9973 7.281432e-02 -93.5779 734.3223)" class="st1" cx="348.2" cy="417.5" rx="9.7" ry="10.7"/>
</g>
<g>
	<path class="st2" d="M347.7,149.1c2.5,1.2,5,2.4,7.5,3.6c2.5,1.2,11.2,3,10.2,6.8c0,0-6.4,23.8-6.4,23.8c0.3,0.8,0.9,1.4,1.7,1.8
		l20.5-16.2l17.5,9.2c0.7,0.4,3.3,1.3,3.4-0.6c0.5-1-0.2-2.4-1-3.3c-0.5-0.6-1.2-1.1-1.8-1.7c-2.2-2.1-3.8-4.9-5.8-7.3
		c-2.4-2.9-4.8-5.8-7.1-8.7c-0.2-0.3-0.5-0.6-0.7-1c-0.2-0.5-0.3-1-0.3-1.4c-0.8-9.1-0.9-18.1-1.8-27.1c-0.9-3-2.4-2.8-3.6-1.7
		l-6.5,16.3l-2,3.2l-24.2-0.4C344.5,145.5,344.8,147.1,347.7,149.1z"/>
	<ellipse transform="matrix(0.7309 -0.6825 0.6825 0.7309 2.6651 311.431)" class="st2" cx="396.2" cy="152.3" rx="8" ry="8.4"/>
</g>
<g>
	<path class="st5" d="M272.8,242.4c-0.1-1.8-0.2-3.6-0.2-5.4c-0.1-1.8-2-7.5,1-7.6c0,0,18.5-0.6,18.5-0.6c0.5-0.3,0.6-0.8,0.6-1.4
		l-18.4-9.7l-0.1-12.6c0.1-0.5-0.3-2.3-1.6-2c-0.8-0.1-1.5,0.6-1.9,1.3c-0.2,0.5-0.3,0.9-0.5,1.4c-0.7,1.8-2,3.3-2.9,5
		c-1.1,2-2.2,4.1-3.3,6.1c-0.1,0.2-0.2,0.4-0.4,0.6c-0.2,0.2-0.6,0.3-0.9,0.5c-5.9,2.2-11.9,4-17.8,6.3c-1.7,1.2-1,2,0.1,2.6
		l13.5,0.9l2.9,0.6l8.4,15.1C271.5,245,272.4,244.6,272.8,242.4z"/>
	
		<ellipse transform="matrix(0.4056 -0.9141 0.9141 0.4056 -40.3652 361.0687)" class="st5" cx="257.4" cy="211.6" rx="5.2" ry="6.3"/>
</g>
<g>
	<path class="st4" d="M412.1,163.1c0.9,1.8,1.8,3.6,2.7,5.3c0.9,1.8,5.4,6.7,2.5,8.1c0,0-18.6,8.9-18.6,8.9c-0.3,0.5-0.3,1.1,0,1.7
		l23,1.5l5.8,12.8c0.2,0.5,1.4,2.2,2.6,1.3c0.9-0.3,1.3-1.3,1.3-2.1c0-0.6-0.1-1.1-0.1-1.7c-0.1-2.1,0.5-4.3,0.7-6.4
		c0.2-2.6,0.4-5.1,0.6-7.7c0-0.3,0-0.5,0.1-0.8c0.1-0.3,0.4-0.6,0.7-0.9c5-4.9,10.3-9.5,15.2-14.4c1.2-1.9,0.1-2.5-1.3-2.6
		l-14.1,5.1L430,172l-15.4-11.5C412.2,159.8,411.4,160.7,412.1,163.1z"/>
	<ellipse class="st4" cx="441.5" cy="187.4" rx="7" ry="5.8"/>
</g>
<g>
	<path class="st5" d="M309.9,213.5c1.2-1.2,2.4-2.4,3.5-3.5c1.2-1.2,3.9-6.1,5.8-4.1c0,0,12.1,12.4,12.1,12.4c0.5,0.1,1-0.1,1.3-0.5
		l-4.9-18.8l8.7-8c0.4-0.3,1.4-1.7,0.3-2.4c-0.5-0.6-1.4-0.7-2.1-0.5c-0.4,0.1-0.9,0.4-1.3,0.5c-1.6,0.7-3.5,0.7-5.2,1.2
		c-2.1,0.5-4.2,1-6.3,1.5c-0.2,0.1-0.4,0.1-0.7,0.1c-0.3,0-0.6-0.2-0.9-0.3c-5.2-2.7-10.3-5.7-15.6-8.3c-1.9-0.4-2,0.6-1.7,1.7
		l7.8,9.9l1.4,2.4l-5.1,15.3C307.2,214.2,308.2,214.6,309.9,213.5z"/>
	
		<ellipse transform="matrix(0.9484 -0.3172 0.3172 0.9484 -41.6133 111.4344)" class="st5" cx="321.4" cy="183.5" rx="4.8" ry="5.9"/>
</g>
<g>
	<path class="st6" d="M204.4,180.4c1.7,1,3.4,2,5.1,2.9c1.7,1,8.1,2.6,6.4,5.4c0,0-10.5,17.4-10.5,17.4c0,0.6,0.4,1.1,0.9,1.4
		l19.8-11.3l11.7,7.4c0.4,0.4,2.3,1.1,2.8-0.3c0.6-0.7,0.4-1.8-0.1-2.5c-0.3-0.5-0.7-0.9-1-1.3c-1.3-1.7-1.9-3.8-2.9-5.6
		c-1.2-2.2-2.4-4.5-3.7-6.7c-0.1-0.2-0.3-0.5-0.3-0.7c-0.1-0.4,0-0.7,0.1-1.1c1.4-6.7,3.3-13.4,4.7-20.1c-0.1-2.2-1.2-2.1-2.4-1.4
		l-8.8,11.9l-2.3,2.3l-18.9-1.2C202.7,177.6,202.5,178.8,204.4,180.4z"/>
	
		<ellipse transform="matrix(0.8353 -0.5498 0.5498 0.8353 -61.6049 163.3408)" class="st6" cx="241.8" cy="184.5" rx="6.9" ry="5.7"/>
</g>
<g>
	<path class="st3" d="M310.4,301.7c-2-2.4-4-4.8-6-7.2c-2-2.4-10.7-8.3-6.7-11.5c0,0,25-20.2,25-20.2c0.3-0.9,0-1.8-0.6-2.6l-35.6,6
		l-13.4-17.4c-0.4-0.8-2.9-2.9-4.4-1c-1.3,0.7-1.5,2.4-1.3,3.7c0.2,0.9,0.5,1.7,0.8,2.5c1,3.2,0.8,6.7,1.3,9.9c0.6,4,1.2,8,1.8,11.9
		c0.1,0.4,0.1,0.8,0.1,1.3c-0.1,0.6-0.4,1.1-0.7,1.5c-5.8,9.2-12.3,18.1-18,27.4c-1.1,3.4,0.7,3.8,2.9,3.4l19.6-12.8l4.6-2.1
		l27.5,12C311.4,306.8,312.3,305.1,310.4,301.7z"/>
	<ellipse transform="matrix(0.9733 -0.2297 0.2297 0.9733 -56.3629 66.3687)" class="st3" cx="256.9" cy="275.3" rx="11" ry="9"/>
</g>
<g>
	<path class="st4" d="M177.9,149.5c1.2-1.2,2.4-2.4,3.5-3.5c1.2-1.2,3.9-6.1,5.8-4.1c0,0,12.1,12.4,12.1,12.4c0.5,0.1,1-0.1,1.3-0.5
		l-4.9-18.8l8.7-8c0.4-0.3,1.4-1.7,0.3-2.4c-0.5-0.6-1.4-0.7-2.1-0.5c-0.4,0.1-0.9,0.4-1.3,0.5c-1.6,0.7-3.5,0.7-5.2,1.2
		c-2.1,0.5-4.2,1-6.3,1.5c-0.2,0.1-0.4,0.1-0.7,0.1c-0.3,0-0.6-0.2-0.9-0.3c-5.2-2.7-10.3-5.7-15.6-8.3c-1.9-0.4-2,0.6-1.7,1.7
		l7.8,9.9l1.4,2.4l-5.1,15.3C175.2,150.2,176.2,150.6,177.9,149.5z"/>
	
		<ellipse transform="matrix(0.9484 -0.3172 0.3172 0.9484 -28.1289 66.2573)" class="st4" cx="189.4" cy="119.5" rx="4.8" ry="5.9"/>
</g>
<g>
	<path class="st2" d="M182.3,276.2c2.2-2.2,4.4-4.4,6.6-6.6c2.2-2.2,7.3-11.4,10.9-7.7c0,0,22.4,23.1,22.4,23.1
		c0.9,0.2,1.8-0.1,2.5-0.8l-9.2-34.9l16.1-14.9c0.7-0.5,2.6-3.1,0.6-4.4c-0.8-1.2-2.5-1.3-3.8-0.9c-0.8,0.3-1.6,0.7-2.4,1
		c-3.1,1.2-6.6,1.4-9.8,2.2c-3.9,1-7.8,1.9-11.7,2.9c-0.4,0.1-0.8,0.2-1.2,0.2c-0.6,0-1.1-0.3-1.6-0.6c-9.7-4.9-19.1-10.6-28.9-15.4
		c-3.5-0.8-3.8,1-3.2,3.2l14.6,18.3l2.5,4.4l-9.5,28.5C177.3,277.6,179.1,278.3,182.3,276.2z"/>
	<ellipse transform="matrix(0.9484 -0.3172 0.3172 0.9484 -59.4167 76.0078)" class="st2" cx="203.7" cy="220.5" rx="9" ry="11"/>
</g>
<g>
	<path class="st0" d="M337.8,156.7c-2.9-1.2-5.7-2.4-8.6-3.6c-2.9-1.2-13.3-2.4-11.2-7.1c0,0,12.8-29.5,12.8-29.5
		c-0.2-1-0.8-1.6-1.7-2l-28.8,21.8l-19.9-9.2c-0.7-0.5-3.9-1.2-4.3,1.1c-0.8,1.2-0.3,2.8,0.6,3.9c0.6,0.7,1.2,1.2,1.8,1.8
		c2.3,2.4,3.7,5.6,5.7,8.2c2.4,3.2,4.7,6.5,7.1,9.8c0.2,0.3,0.5,0.7,0.6,1.1c0.2,0.5,0.1,1.1,0.1,1.7c-0.9,10.9-2.5,21.7-3.3,32.6
		c0.6,3.5,2.4,3.1,4.1,1.7l11.4-20.4l3.1-4l29.9-2.1C341,160.7,341,158.8,337.8,156.7z"/>
	<ellipse transform="matrix(0.7563 -0.6543 0.6543 0.7563 -35.613 220.4936)" class="st0" cx="278.1" cy="158" rx="11" ry="9"/>
</g>
<g>
	<path class="st4" d="M473.3,124.2c2.2-2.2,4.4-4.4,6.6-6.6c2.2-2.2,7.3-11.4,10.9-7.7c0,0,22.4,23.1,22.4,23.1
		c0.9,0.2,1.8-0.1,2.5-0.8l-9.2-34.9l16.1-14.9c0.7-0.5,2.6-3.1,0.6-4.4c-0.8-1.2-2.5-1.3-3.8-0.9c-0.8,0.3-1.6,0.7-2.4,1
		c-3.1,1.2-6.6,1.4-9.8,2.2c-3.9,1-7.8,1.9-11.7,2.9c-0.4,0.1-0.8,0.2-1.2,0.2c-0.6,0-1.1-0.3-1.6-0.6c-9.7-4.9-19.1-10.6-28.9-15.4
		c-3.5-0.8-3.8,1-3.2,3.2l14.6,18.3l2.5,4.4l-9.5,28.5C468.3,125.6,470.1,126.3,473.3,124.2z"/>
	<ellipse transform="matrix(0.9484 -0.3172 0.3172 0.9484 3.8281 160.4662)" class="st4" cx="494.7" cy="68.5" rx="9" ry="11"/>
</g>
<g>
	<path class="st2" d="M423.2,149.5c0.9-1.9,1.9-3.7,2.8-5.6c1-1.9,2.3-8.8,5.4-7.2c0,0,19.2,10.1,19.2,10.1c0.7-0.1,1.1-0.4,1.4-1.1
		l-13.2-20.5l7.2-12.9c0.4-0.5,1-2.6-0.5-3c-0.8-0.6-1.9-0.3-2.6,0.2c-0.5,0.3-0.9,0.8-1.3,1.2c-1.7,1.4-3.9,2.2-5.8,3.4
		c-2.3,1.5-4.6,2.9-6.9,4.3c-0.2,0.1-0.5,0.3-0.8,0.4c-0.4,0.1-0.8,0-1.1,0c-7.3-1.1-14.5-2.8-21.8-3.9c-2.4,0.2-2.2,1.4-1.4,2.7
		l13.2,8.7l2.6,2.3l-0.1,20.3C420.4,151.4,421.6,151.5,423.2,149.5z"/>
	<ellipse transform="matrix(0.8031 -0.5959 0.5959 0.8031 18.6622 274.956)" class="st2" cx="425.3" cy="109.2" rx="6.1" ry="7.4"/>
</g>
<g>
	<path class="st1" d="M406.5,70.4c1.9,0.5,3.7,0.9,5.6,1.4c1.9,0.5,8.4,0.2,7.5,3.3c0,0-5.1,19.3-5.1,19.3c0.2,0.6,0.6,0.9,1.2,1.1
		l15.6-16l13,3.8c0.5,0.2,2.5,0.4,2.6-1.1c0.4-0.8-0.1-1.8-0.7-2.3c-0.4-0.4-0.9-0.6-1.3-1c-1.6-1.2-2.8-3.1-4.3-4.5
		c-1.8-1.8-3.5-3.5-5.3-5.3c-0.2-0.2-0.4-0.4-0.5-0.6c-0.2-0.3-0.2-0.7-0.2-1c-0.5-6.7-0.5-13.5-1-20.3c-0.7-2.1-1.7-1.7-2.7-0.7
		l-5.1,13.6l-1.5,2.8l-18.1,4C404.1,68.2,404.3,69.4,406.5,70.4z"/>
	<ellipse transform="matrix(0.6504 -0.7596 0.7596 0.6504 106.17 358.7799)" class="st1" cx="442.9" cy="64" rx="6.8" ry="5.6"/>
</g>
<g>
	<path class="st6" d="M355.3,101.2c2.2-2.2,4.4-4.4,6.6-6.6c2.2-2.2,7.3-11.4,10.9-7.7c0,0,22.4,23.1,22.4,23.1
		c0.9,0.2,1.8-0.1,2.5-0.8l-9.2-34.9l16.1-14.9c0.7-0.5,2.6-3.1,0.6-4.4c-0.8-1.2-2.5-1.3-3.8-0.9c-0.8,0.3-1.6,0.7-2.4,1
		c-3.1,1.2-6.6,1.4-9.8,2.2c-3.9,1-7.8,1.9-11.7,2.9c-0.4,0.1-0.8,0.2-1.2,0.2c-0.6,0-1.1-0.3-1.6-0.6c-9.7-4.9-19.1-10.6-28.9-15.4
		c-3.5-0.8-3.8,1-3.2,3.2l14.6,18.3l2.5,4.4l-9.5,28.5C350.3,102.6,352.1,103.3,355.3,101.2z"/>
	<ellipse transform="matrix(0.9484 -0.3172 0.3172 0.9484 5.0298 121.8474)" class="st6" cx="376.7" cy="45.5" rx="9" ry="11"/>
</g>
<linearGradient id="SVGID_00000023253691066192367800000010307546381396698268_" gradientUnits="userSpaceOnUse" x1="370.5" y1="525" x2="370.5" y2="525">
	<stop  offset="0" style="stop-color:#8C6239"/>
	<stop  offset="1" style="stop-color:#42210B"/>
</linearGradient>
<path style="fill:url(#SVGID_00000023253691066192367800000010307546381396698268_);" d="M370.5,525"/>
<g>
	
		<linearGradient id="SVGID_00000107585650203275878700000008593635310169224837_" gradientUnits="userSpaceOnUse" x1="92.1207" y1="507.4619" x2="660.5" y2="507.4619">
		<stop  offset="5.586592e-03" style="stop-color:#8C6239"/>
		<stop  offset="1" style="stop-color:#42210B"/>
	</linearGradient>
	<path style="fill:url(#SVGID_00000107585650203275878700000008593635310169224837_);" d="M635.7,432.1c-8.4,22.9-27.6,36-47.7,49.9
		c-50.9,35-120,16.9-174,54.1c0,20.7-3.5,105.5-4.1,151.6c-0.1,7.8-9.2,17.5-17,18c-13.5,0.9-7.4,1.3-19.6,0.6
		c-12.3,0.7-6.1,0.3-19.6-0.6c-7.8-0.5-16.9-10.2-17-18c-0.6-46.1,2-130.9,1.9-151.6c-54-37.2-123.1-19.1-174-54.1
		c-20.1-13.8-39.3-26.9-47.7-49.9c-14.8-40.2-29.5-81.5-23.4-123.9c31,16.4,19.9,68.5,46.6,91.3c7.3,6.3,16.7,9.5,25.4,13.5
		c15.6,7.3,29.8,17.6,41.4,30.2c3.5,3.8,7,7.9,11.6,10.2c5.9,2.9,12.8,2.4,19.4,2.2c10.5-0.3,21.1,0.3,31.5,1.9
		c-10.2-9.3-20.3-18.7-29.4-29.2c-3.9-4.5-16.7-14.7-15.3-22.1c1.8-9.8,31,4.8,35.3,8.8c0.1,0.1,93.7,77.8,93.7,77.8l-0.2,0.2
		c5.2,3.9,10.2,8.2,15,12.6c2.2,2.1,5,3.1,7.7,3.2c2.8-0.1,5.6-1.1,7.7-3.2c4.8-4.5,9.7-8.7,15-12.6l-0.2-0.2
		c0,0,93.7-77.7,93.7-77.8c4.3-4,33.5-18.6,35.3-8.8c1.4,7.4-11.4,17.5-15.3,22.1c-9.1,10.6-19.2,19.9-29.4,29.2
		c10.4-1.6,21-2.2,31.5-1.9c6.6,0.2,13.5,0.7,19.4-2.2c4.7-2.3,8.1-6.4,11.6-10.2c11.7-12.6,25.9-22.9,41.4-30.2
		c8.7-4.1,18.1-7.3,25.4-13.5c26.7-22.8,15.6-74.9,46.6-91.3C665.2,350.6,650.5,391.9,635.7,432.1z"/>
</g>
</svg>
